<svg width="144" height="144" viewBox="0 0 49 24" fill="none" xmlns="http://www.w3.org/2000/svg">
<path d="M8.672 23L0.48 0.599998H4.864L11.2 18.808L17.568 0.599998H21.888L13.696 23H8.672ZM23.591 23V0.599998H31.239C33.863 0.599998 36.0177 1.06933 37.703 2.008C39.4097 2.92533 40.6683 4.22667 41.479 5.912C42.311 7.576 42.727 9.53867 42.727 11.8C42.727 14.0613 42.311 16.0347 41.479 17.72C40.6683 19.384 39.4097 20.6853 37.703 21.624C36.0177 22.5413 33.863 23 31.239 23H23.591ZM27.687 19.48H31.047C32.9243 19.48 34.407 19.1813 35.495 18.584C36.583 17.9653 37.3617 17.0907 37.831 15.96C38.3003 14.808 38.535 13.4213 38.535 11.8C38.535 10.2 38.3003 8.824 37.831 7.672C37.3617 6.52 36.583 5.63467 35.495 5.016C34.407 4.39733 32.9243 4.088 31.047 4.088H27.687V19.48ZM46.0763 23.224C45.3296 23.224 44.7109 22.9893 44.2203 22.52C43.7509 22.0507 43.5163 21.4853 43.5163 20.824C43.5163 20.1413 43.7509 19.5653 44.2203 19.096C44.7109 18.6267 45.3296 18.392 46.0763 18.392C46.8229 18.392 47.4309 18.6267 47.9003 19.096C48.3909 19.5653 48.6363 20.1413 48.6363 20.824C48.6363 21.4853 48.3909 22.0507 47.9003 22.52C47.4309 22.9893 46.8229 23.224 46.0763 23.224Z" fill="#181717"/>
</svg>
